<?xml version="1.0" standalone="no"?>
<!DOCTYPE svg PUBLIC "-//W3C//DTD SVG 20010904//EN"
 "http://www.w3.org/TR/2001/REC-SVG-20010904/DTD/svg10.dtd">
<svg version="1.0" xmlns="http://www.w3.org/2000/svg"
 width="101.000000pt" height="94.000000pt" viewBox="0 0 101.000000 94.000000"
 preserveAspectRatio="xMidYMid meet">

<g transform="translate(0.000000,94.000000) scale(0.100000,-0.100000)"
fill="#000000" stroke="none">
<path d="M0 470 l0 -470 505 0 505 0 0 470 0 470 -505 0 -505 0 0 -470z m580
245 l0 -55 -97 0 c-117 -1 -133 -9 -133 -69 0 -69 5 -71 207 -71 194 0 243 -8
279 -47 22 -24 24 -35 24 -122 0 -167 -12 -173 -346 -179 -266 -5 -284 -2
-284 48 0 63 -10 60 250 60 267 0 270 1 270 67 0 70 -10 73 -215 73 -197 0
-237 7 -272 49 -20 23 -23 37 -23 114 0 155 39 186 228 187 l112 0 0 -55z"/>
</g>
</svg>
