<svg width="25" height="30" viewBox="0 0 25 30" fill="none" xmlns="http://www.w3.org/2000/svg">
<path d="M20.4464 16.2595C20.4123 12.569 23.5513 10.7736 23.6948 10.69C21.917 8.16743 19.1616 7.82277 18.1933 7.79529C15.8791 7.55826 13.6342 9.14301 12.4553 9.14301C11.2529 9.14301 9.43751 7.81819 7.48093 7.85712C4.96314 7.8949 2.60771 9.31362 1.31587 11.5167C-1.35016 16.0087 0.638186 22.6099 3.19245 26.2409C4.47017 28.0191 5.96319 30.0047 7.91742 29.9348C9.8293 29.8581 10.5435 28.7485 12.8506 28.7485C15.1367 28.7485 15.8073 29.9348 17.8003 29.8901C19.8522 29.8581 21.1441 28.1039 22.3771 26.3096C23.8536 24.2714 24.4466 22.2641 24.4701 22.1611C24.4219 22.145 20.4852 20.6828 20.4464 16.2595Z" fill="white"/>
<path d="M16.6815 5.40671C17.7097 4.15518 18.4133 2.45249 18.218 0.724609C16.7297 0.788732 14.8684 1.72653 13.7966 2.95058C12.8483 4.02922 12.0012 5.79717 12.22 7.45979C13.8919 7.58116 15.6084 6.63879 16.6815 5.40671Z" fill="white"/>
</svg>
