<?xml version="1.0" encoding="UTF-8"?>
<svg version="1.1" xmlns="http://www.w3.org/2000/svg" width="1280" height="504">
<path d="M0 0 C9.47549131 -0.16277416 18.95049546 -0.28686194 28.42708397 -0.3626852 C32.82835941 -0.39909217 37.22867273 -0.44840793 41.62939453 -0.52807617 C45.88294437 -0.60459104 50.13557372 -0.6460844 54.38975906 -0.6641407 C56.0060537 -0.67699416 57.62230253 -0.7020941 59.23820114 -0.7401104 C69.29663534 -0.96716248 76.32679642 -0.22660201 84 7 C84.92554688 7.81984375 85.85109375 8.6396875 86.8046875 9.484375 C92.03714321 15.2104586 94.96310382 20.50764062 97 28 C97.99 25.69 98.98 23.38 100 21 C100.66 21 101.32 21 102 21 C102.07863281 20.43152344 102.15726563 19.86304687 102.23828125 19.27734375 C104.18918047 13.44465531 110.60272481 9.31318927 115.78198242 6.47607422 C126.3890112 2.21775954 136.61480868 2.33623727 147.90478516 2.51293945 C151.12572091 2.5625111 154.34512229 2.57444394 157.56640625 2.58007812 C189.81939066 2.75599188 189.81939066 2.75599188 199.875 11.5 C200.57625 12.325 201.2775 13.15 202 14 C203.0209375 14.99 203.0209375 14.99 204.0625 16 C207.08822966 19.12333385 209.61383547 21.8415064 211 26 C211.37511719 25.30132813 211.75023437 24.60265625 212.13671875 23.8828125 C212.64847656 22.97273438 213.16023438 22.06265625 213.6875 21.125 C214.18636719 20.22007813 214.68523437 19.31515625 215.19921875 18.3828125 C217.29306387 15.61221484 218.83045395 15.2186623 222 14 C222.69141048 12.67932829 223.35858479 11.34566294 224 10 C225.98828125 8.8046875 225.98828125 8.8046875 228.3125 7.875 C229.11945313 7.54628906 229.92640625 7.21757813 230.7578125 6.87890625 C231.49773437 6.58886719 232.23765625 6.29882812 233 6 C233.886875 5.608125 234.77375 5.21625 235.6875 4.8125 C242.01188319 2.59041942 248.51082756 2.8440396 255.125 2.875 C256.20797363 2.87983398 257.29094727 2.88466797 258.40673828 2.88964844 C261.93804244 2.91484684 265.46888976 2.95541048 269 3 C270.23041016 3.01256836 271.46082031 3.02513672 272.72851562 3.03808594 C276.44485842 3.08543404 280.15938993 3.16308224 283.875 3.25 C285.59227295 3.27102783 285.59227295 3.27102783 287.34423828 3.29248047 C299.56405239 3.65204461 309.36910585 7.1493038 318 16 C323.29965287 23.06620383 326.15195887 28.49968717 326.13701439 37.35340977 C326.13966622 38.11195512 326.14231804 38.87050047 326.14505023 39.65203205 C326.15275912 42.2144499 326.15330301 44.77681996 326.15390015 47.33924866 C326.15791373 49.1867472 326.16235178 51.03424487 326.1671797 52.88174146 C326.17916279 57.97496328 326.18479768 63.06817562 326.18936086 68.16140878 C326.19531041 73.64831248 326.2069219 79.1352048 326.21765137 84.62210083 C326.24219066 97.88167062 326.25680499 111.14124418 326.26971143 124.4008297 C326.27342233 128.14484734 326.27739564 131.88886461 326.2814641 135.63288188 C326.30670014 158.87367201 326.32877336 182.11446291 326.34119225 205.35526371 C326.34411357 210.74034185 326.34708109 216.12541996 326.35009766 221.51049805 C326.35046857 222.17952617 326.35083947 222.84855429 326.35122162 223.53785599 C326.36337487 245.22526125 326.39431488 266.91258532 326.43601918 288.59995246 C326.48002962 311.5284072 326.50572752 334.45682915 326.51111281 357.38532919 C326.51452847 369.88408401 326.52630201 382.38271076 326.55921555 394.88142586 C326.58719908 405.52557806 326.59822279 416.16957594 326.58702008 426.81376208 C326.5818291 432.24488476 326.58474911 437.67568418 326.60948563 443.10676003 C326.63195082 448.08066572 326.63125922 453.05401541 326.61228175 458.02793067 C326.60947794 459.82545744 326.61510146 461.6230217 326.63009469 463.42048813 C326.72752988 475.8643433 325.22006855 485.07836282 316.53125 494.54296875 C314.21607945 496.7459244 311.7458639 498.37489688 309 500 C308.09926758 500.68425049 307.19853516 501.36850098 306.27050781 502.07348633 C300.35951206 505.41411089 293.20695584 504.63719174 286.609375 504.63671875 C285.09872944 504.64705086 283.58808873 504.65811605 282.07745361 504.6698761 C278.91690154 504.68925761 275.75679144 504.69274834 272.59619141 504.6862793 C268.57326573 504.68029657 264.55265844 504.72445263 260.53020859 504.78216839 C257.41056791 504.81939955 254.29147343 504.8240534 251.17163849 504.81989479 C249.69022489 504.82274201 248.20878493 504.83661748 246.72759247 504.86237144 C235.11100579 505.04309465 227.8762225 502.35944833 219.24609375 494.48828125 C218.64925781 493.77027344 218.05242187 493.05226563 217.4375 492.3125 C216.81746094 491.58675781 216.19742187 490.86101562 215.55859375 490.11328125 C214 488 214 488 212.91015625 485.79296875 C212.13105436 483.81755899 212.13105436 483.81755899 210 483 C209.7421875 483.73347656 209.484375 484.46695312 209.21875 485.22265625 C205.15345101 494.48684722 196.70673123 499.64663439 188 504 C185.89890276 504.12251435 183.7939266 504.18026601 181.68945312 504.20874023 C181.0419812 504.21852402 180.39450928 504.2283078 179.72741699 504.23838806 C177.57871549 504.26836167 175.43007688 504.28974267 173.28125 504.30859375 C172.17740211 504.31845149 172.17740211 504.31845149 171.05125427 504.32850838 C167.14942345 504.36112403 163.24762002 504.38555924 159.34570312 504.4050293 C156.12914693 504.42277838 152.91347809 504.45748921 149.69726562 504.50756836 C145.80447819 504.5681065 141.91250756 504.59855174 138.01927185 504.60820198 C136.54258219 504.61670822 135.06591147 504.63540597 133.5894928 504.6649456 C124.21861693 504.84220667 117.57677775 503.87971257 110 498 C109.05640625 497.34773438 108.1128125 496.69546875 107.140625 496.0234375 C104.45135384 493.48138921 102.67735667 490.78086265 100.75 487.625 C100.06421875 486.52414062 99.3784375 485.42328125 98.671875 484.2890625 C97.03823716 481.07522357 96.36594433 478.56257572 96 475 C95.34 475 94.68 475 94 475 C93.91621094 475.886875 93.83242187 476.77375 93.74609375 477.6875 C92.2623735 484.27490717 86.71456575 488.98982081 81.42578125 492.90625 C74.07110277 497.50151619 67.08104805 499.26935713 58.5 499.625 C57.7052124 499.66222168 56.9104248 499.69944336 56.09155273 499.73779297 C49.53181044 500.02274224 42.98306164 500.17452187 36.41699219 500.04589844 C34.57140951 500.01085101 32.72566073 499.98444468 30.87988281 499.96191406 C27.31502574 499.91269513 23.75169764 499.83393118 20.1875 499.75 C19.04224854 499.73598145 17.89699707 499.72196289 16.71704102 499.70751953 C5.91671896 499.39219311 -3.02096723 496.48248352 -11 489 C-14.49089675 485.0514079 -17.41143274 481.08341525 -19 476 C-19.2578125 476.53109375 -19.515625 477.0621875 -19.78125 477.609375 C-25.85669774 489.52659942 -32.3471591 498.48459568 -45 504 C-48.31170654 504.40786743 -48.31170654 504.40786743 -51.94824219 504.45166016 C-52.61580536 504.46334229 -53.28336853 504.47502441 -53.97116089 504.48706055 C-56.16321452 504.52046573 -58.35458972 504.53136521 -60.546875 504.5390625 C-62.08376287 504.55125872 -63.62064846 504.56374522 -65.15753174 504.57650757 C-68.37525754 504.59893864 -71.59274732 504.60853262 -74.81054688 504.61083984 C-78.91086069 504.61611304 -83.00918089 504.66739788 -87.1089592 504.73035622 C-90.28342202 504.77145747 -93.45741335 504.78048379 -96.63211823 504.78095627 C-98.14228995 504.7863026 -99.65246997 504.80300059 -101.1623764 504.83180618 C-111.00350687 505.00386977 -117.54213363 503.81892775 -125 497 C-125.886875 496.2575 -126.77375 495.515 -127.6875 494.75 C-131.27478021 490.48404515 -134.1095342 485.75635726 -137 481 C-138.64021727 483.14595093 -140.13315772 485.22747778 -141.5 487.5625 C-142.86623226 489.78262742 -144.09977698 491.25179483 -146 493 C-146.61875 493.680625 -147.2375 494.36125 -147.875 495.0625 C-150.15284483 497.13935853 -152.09667881 498.03222627 -155 499 C-155 499.66 -155 500.32 -155 501 C-159.48463499 503.56878191 -162.76558558 504.39217469 -167.91650391 504.4675293 C-168.58085449 504.48081772 -169.24520508 504.49410614 -169.9296875 504.50779724 C-172.1121032 504.54628026 -174.29385076 504.56206062 -176.4765625 504.57421875 C-178.00865813 504.58896092 -179.54075243 504.60384057 -181.07284546 504.61885071 C-184.2821675 504.64579097 -187.49125903 504.6593764 -190.70068359 504.66577148 C-194.78309596 504.67660419 -198.86301421 504.73821004 -202.94469643 504.8124876 C-206.11066566 504.86123812 -209.27605151 504.87331097 -212.44236374 504.87583351 C-213.94533826 504.88299586 -215.44831679 504.90320792 -216.95091629 504.93753624 C-227.66135156 505.16343583 -234.74783661 503.12398262 -243 496 C-248.00252487 491.19533194 -251.17690631 486.32372986 -254 480 C-254.51046875 480.94359375 -254.51046875 480.94359375 -255.03125 481.90625 C-258.58042563 488.17394313 -262.41112355 493.41332918 -268 498 C-268.54130554 498.48742172 -269.08261108 498.97484344 -269.64031982 499.47703552 C-276.82319149 505.18494485 -284.30935275 504.89505212 -293.05859375 504.83203125 C-294.61361946 504.83862719 -296.16863902 504.84685063 -297.72364807 504.85661316 C-300.97082257 504.86991236 -304.21700602 504.86122318 -307.46411133 504.8371582 C-311.60152446 504.80858996 -315.73608622 504.83863813 -319.87324429 504.88579273 C-323.0812761 504.91514864 -326.28863939 504.91120648 -329.49675179 504.89777184 C-331.02081591 504.8956355 -332.54493581 504.90396917 -334.06887627 504.92350197 C-343.9052628 505.02826763 -350.56945085 503.85499179 -358 497 C-358.84485207 496.25959221 -358.84485207 496.25959221 -359.70677185 495.50422668 C-361.125 494.1875 -361.125 494.1875 -363 492 C-363 491.34 -363 490.68 -363 490 C-363.99 489.67 -364.98 489.34 -366 489 C-367.38671875 487.15234375 -367.38671875 487.15234375 -368.6875 484.9375 C-369.12449219 484.20402344 -369.56148437 483.47054688 -370.01171875 482.71484375 C-370.33785156 482.14894531 -370.66398438 481.58304687 -371 481 C-371.44730469 481.73605469 -371.89460937 482.47210938 -372.35546875 483.23046875 C-378.7805289 493.60098161 -378.7805289 493.60098161 -383 497 C-383.99 497 -384.98 497 -386 497 C-386 497.66 -386 498.32 -386 499 C-393.18384649 505.1384902 -400.7141396 504.76751765 -409.70703125 504.734375 C-411.23866956 504.74283982 -412.77030176 504.75248407 -414.30192566 504.76324463 C-417.50367942 504.77958294 -420.70474108 504.77697853 -423.90649414 504.76171875 C-427.98213371 504.744465 -432.05518898 504.78153686 -436.13045216 504.83398056 C-439.2921639 504.86728808 -442.45326847 504.86762445 -445.61511803 504.85883331 C-447.11604732 504.85919 -448.61701853 504.87028153 -450.11777687 504.89293671 C-461.33895929 505.03983544 -468.88923259 502.85672973 -477.13215637 494.95648193 C-481.34895812 490.52522023 -484.26701678 485.44077765 -487 480 C-489.00993705 482.00993705 -489.89940919 483.59211232 -491.125 486.125 C-491.47820312 486.84945313 -491.83140625 487.57390625 -492.1953125 488.3203125 C-492.46085937 488.87460937 -492.72640625 489.42890625 -493 490 C-493.66 490 -494.32 490 -495 490 C-495.22945313 490.57492187 -495.45890625 491.14984375 -495.6953125 491.7421875 C-497.33892872 494.58652935 -499.29023952 496.10781303 -501.875 498.125 C-502.73867188 498.80820312 -503.60234375 499.49140625 -504.4921875 500.1953125 C-509.07182535 503.49093974 -511.96576222 504.25411586 -517.67700195 504.29052734 C-518.33933838 504.29724457 -519.0016748 504.30396179 -519.68408203 504.31088257 C-521.86889192 504.32984505 -524.05339423 504.33378606 -526.23828125 504.3359375 C-527.76279322 504.34236757 -529.28730396 504.34909609 -530.81181335 504.35610962 C-534.00697692 504.36807864 -537.2020324 504.37179093 -540.3972168 504.37060547 C-544.4793924 504.37040251 -548.56087003 504.39768198 -552.64288044 504.43214989 C-555.79230391 504.45445708 -558.94156056 504.45844182 -562.09105492 504.45738602 C-563.59527169 504.4597371 -565.09949341 504.46853285 -566.60363197 504.48405075 C-580.97001205 504.61836695 -580.97001205 504.61836695 -587 500 C-587.969375 499.46375 -588.93875 498.9275 -589.9375 498.375 C-596.43592131 493.33540797 -601.30023785 486.76181619 -604 479 C-604.38671875 479.73605469 -604.7734375 480.47210938 -605.171875 481.23046875 C-605.69265625 482.20628906 -606.2134375 483.18210937 -606.75 484.1875 C-607.26046875 485.15042969 -607.7709375 486.11335938 -608.296875 487.10546875 C-612.91775897 494.95885183 -619.66513354 500.41075377 -628 504 C-633.40063773 505.17194788 -638.58805288 505.22833226 -644.07421875 505.125 C-645.57485929 505.12598738 -647.07550047 505.12995693 -648.5761261 505.13671875 C-651.69563947 505.14092383 -654.81279269 505.11416179 -657.93188477 505.06347656 C-661.90001786 505.00083686 -665.86409992 505.00984621 -669.83247662 505.04122925 C-672.92230019 505.05887203 -676.01120675 505.04192024 -679.10093117 505.0145874 C-680.56271078 505.0049964 -682.0245894 505.00492292 -683.48636436 505.01519775 C-695.10784015 505.06335375 -702.1283013 502.0542199 -710.91796875 494.48828125 C-713.38164831 491.54388373 -715.37128152 488.49162329 -717.3125 485.1875 C-717.85100586 484.2912793 -717.85100586 484.2912793 -718.40039062 483.37695312 C-719.27344624 481.92186044 -720.13766691 480.46147271 -721 479 C-721.27972656 479.6290625 -721.55945313 480.258125 -721.84765625 480.90625 C-725.55551507 488.82270741 -729.95716192 495.97858096 -738 500 C-738.89219238 500.67409912 -739.78438477 501.34819824 -740.70361328 502.04272461 C-746.5946781 505.39370258 -753.66357676 504.59454295 -760.2421875 504.56640625 C-761.7352029 504.57164912 -763.22821498 504.57792802 -764.72122192 504.58518982 C-767.84311561 504.59556821 -770.96455279 504.5910713 -774.08642578 504.57641602 C-778.06655517 504.55925153 -782.04523764 504.58270591 -786.02520561 504.61790562 C-789.10699845 504.63998109 -792.18845065 504.63841357 -795.270298 504.6301403 C-796.73656931 504.62932593 -798.20286694 504.6360902 -799.66906357 504.65091133 C-808.2087127 504.72399952 -814.98217678 504.30288582 -822 499 C-822.99240189 498.25400291 -822.99240189 498.25400291 -824.00485229 497.49293518 C-830.37737583 492.4978284 -834.1042958 486.46786871 -837 479 C-837.40089844 479.7734375 -837.80179688 480.546875 -838.21484375 481.34375 C-842.16452716 488.58035815 -846.19746521 494.25048247 -853 499 C-853.55311356 499.41054626 -854.10622711 499.82109253 -854.67610168 500.24407959 C-861.87766577 504.96755769 -869.24200237 504.7833615 -877.55078125 504.76953125 C-879.05617529 504.78054577 -880.56156214 504.79258372 -882.06694031 504.80558777 C-885.21143111 504.82640311 -888.35522302 504.8278256 -891.49975586 504.81665039 C-895.49818872 504.80497865 -899.49343337 504.85244227 -903.49128437 504.91611195 C-906.59815006 504.9570184 -909.70426698 504.96044478 -912.81136131 504.95371056 C-914.28358486 504.95589362 -915.755852 504.97051569 -917.227808 504.99866676 C-927.76544873 505.17710495 -934.9483948 503.11165977 -943 496 C-949.69828429 488.81478348 -954.47530856 482.32993088 -954.38311005 472.22500801 C-954.38806956 471.45733681 -954.39302908 470.68966561 -954.39813888 469.89873165 C-954.41110497 467.32319883 -954.4027072 464.74818359 -954.39440918 462.17263794 C-954.3992976 460.30874764 -954.40548718 458.44486037 -954.41286707 456.58097827 C-954.42929585 451.45642248 -954.42694267 446.33202024 -954.4214921 441.20744729 C-954.41882553 435.68176645 -954.43334667 430.15612687 -954.44558716 424.63046265 C-954.46665899 413.80403867 -954.47118101 402.97766823 -954.46939927 392.15122618 C-954.46809255 383.35280337 -954.47189119 374.55439729 -954.47932434 365.75597763 C-954.4814235 363.22329708 -954.4835211 360.69061653 -954.48561716 358.15793598 C-954.48666069 356.89741971 -954.48770422 355.63690344 -954.48877937 354.33818971 C-954.50231579 337.26588078 -954.50990446 320.19357728 -954.50545502 303.1212635 C-954.50528306 302.45360851 -954.50511111 301.78595352 -954.50493394 301.09806655 C-954.50404505 297.71411493 -954.50310024 294.33016332 -954.50213593 290.94621171 C-954.50184938 289.93811404 -954.50184938 289.93811404 -954.50155704 288.90965077 C-954.50116995 287.55057179 -954.50077962 286.19149281 -954.50038607 284.83241383 C-954.4944159 263.6846179 -954.50985481 242.53693141 -954.54199219 221.38916016 C-954.57806742 197.62995912 -954.59735831 173.87081756 -954.59245348 150.11158168 C-954.59020705 137.53134642 -954.59547747 124.95121963 -954.62034607 112.37100601 C-954.6413364 101.6613457 -954.64497363 90.95185335 -954.62604648 80.2421862 C-954.61687481 74.77687178 -954.61578963 69.31187071 -954.63640213 63.84658051 C-954.65506143 58.84389364 -954.65066517 53.84177788 -954.62785631 48.8391131 C-954.62365781 47.02893248 -954.62791239 45.2187085 -954.64145225 43.40857364 C-954.76048051 26.3334958 -954.76048051 26.3334958 -949 20 C-948.278125 18.989375 -947.55625 17.97875 -946.8125 16.9375 C-940.36465242 9.53965606 -931.60396697 4.69112477 -921.86230469 3.67163086 C-918.32344941 3.48130715 -914.79329453 3.37903182 -911.25 3.3125 C-909.47109375 3.26125977 -909.47109375 3.26125977 -907.65625 3.20898438 C-899.77066319 2.99807075 -891.88799084 2.94592804 -884 3 C-882.76491699 3.00713013 -882.76491699 3.00713013 -881.50488281 3.0144043 C-868.12830013 3.18385646 -856.08572614 4.89607057 -846.01171875 14.59765625 C-842.3320101 18.99187143 -839.62954744 23.92691812 -837 29 C-836.69707031 28.33613281 -836.39414062 27.67226563 -836.08203125 26.98828125 C-833.62075022 21.80065815 -831.42209106 17.79036376 -827 14 C-826.53335938 13.52046875 -826.06671875 13.0409375 -825.5859375 12.546875 C-814.93668577 2.15992011 -801.76363608 2.36291642 -787.8125 2.46289062 C-786.65234375 2.47940674 -785.4921875 2.49592285 -784.296875 2.51293945 C-780.74443482 2.56257776 -777.19338186 2.57444427 -773.640625 2.58007812 C-771.3593604 2.59415914 -769.07810769 2.61036174 -766.796875 2.62890625 C-765.74667175 2.63426895 -764.69646851 2.63963165 -763.61444092 2.64515686 C-751.26993693 2.84282183 -739.3020214 5.57833148 -730.0625 14.375 C-725.92660223 18.93561099 -722.27101942 23.90181108 -721 30 C-720.46375 28.845 -719.9275 27.69 -719.375 26.5 C-713.70312608 15.27524253 -706.03588533 8.46865933 -694.23852539 4.04516602 C-686.20894312 1.73151194 -677.49697327 2.38373842 -669.22558594 2.51293945 C-666.00676439 2.56239607 -662.78948038 2.57443649 -659.5703125 2.58007812 C-626.09058889 2.76176321 -626.09058889 2.76176321 -612.75390625 15.1015625 C-608.95043868 19.21845612 -606.45837399 24.00573572 -604 29 C-603.505 27.865625 -603.01 26.73125 -602.5 25.5625 C-597.22927047 15.09527656 -588.86498873 8.56819326 -578.0546875 4.578125 C-571.89496575 2.84497135 -565.82949048 2.83934282 -559.484375 2.83203125 C-558.47336731 2.82870285 -557.46235962 2.82537445 -556.42071533 2.82194519 C-554.28585259 2.81689451 -552.15098199 2.81453629 -550.01611328 2.81469727 C-546.77493033 2.81251677 -543.5340913 2.79435752 -540.29296875 2.77539062 C-538.21093865 2.772455 -536.12890695 2.77047134 -534.046875 2.76953125 C-532.61042633 2.75875298 -532.61042633 2.75875298 -531.1449585 2.74775696 C-517.28282627 2.7940712 -505.1876113 6.22780586 -495 16 C-491.89981276 19.96763622 -489.63857609 24.23323319 -488 29 C-485.70111535 25.55167303 -483.68036561 21.97697824 -481.6328125 18.375 C-479.96189678 15.94457714 -478.50114361 14.5391653 -476 13 C-475.34 13 -474.68 13 -474 13 C-473.79334717 12.40638672 -473.58669434 11.81277344 -473.3737793 11.20117188 C-470.47434782 6.55548604 -464.63165113 5.01861182 -459.57330322 3.55029297 C-451.30720553 1.78261344 -442.60473658 2.2867696 -434.20092773 2.4375 C-430.67714082 2.50018428 -427.15515082 2.51950481 -423.63085938 2.53125 C-421.36195758 2.54958221 -419.09307375 2.57033127 -416.82421875 2.59375 C-415.7854509 2.60224976 -414.74668304 2.61074951 -413.67643738 2.61950684 C-400.16211968 2.88130399 -390.16662481 5.50248958 -380.1171875 14.76953125 C-376.38249592 18.7040495 -373.42377014 23.15245973 -371 28 C-370.38125 27.05640625 -370.38125 27.05640625 -369.75 26.09375 C-363.48268734 16.80469731 -357.7094402 9.84658691 -347 6 C-345.86731689 5.4949292 -344.73463379 4.9898584 -343.56762695 4.46948242 C-338.24128853 2.48152209 -333.07708896 2.56869322 -327.44921875 2.6015625 C-326.35462845 2.59869232 -325.26003815 2.59582214 -324.13227844 2.59286499 C-321.82524089 2.59083123 -319.51818582 2.59631273 -317.21118164 2.60888672 C-313.70874768 2.62490284 -310.20747579 2.60903767 -306.70507812 2.58984375 C-304.45312249 2.59182721 -302.20116756 2.595673 -299.94921875 2.6015625 C-298.91552658 2.59548981 -297.88183441 2.58941711 -296.81681824 2.5831604 C-285.08319006 2.69474344 -273.14637904 5.65532258 -264.125 13.5 C-263.42375 14.325 -262.7225 15.15 -262 16 C-261.29875 16.7425 -260.5975 17.485 -259.875 18.25 C-257.37102772 21.92249267 -256.2208869 25.75464327 -255 30 C-254.34 30 -253.68 30 -253 30 C-252.938125 29.34 -252.87625 28.68 -252.8125 28 C-251.37399815 22.68860856 -248.19304702 17.61005652 -244 14 C-243.34 14 -242.68 14 -242 14 C-241.67 13.01 -241.34 12.02 -241 11 C-238.5234375 9.46484375 -238.5234375 9.46484375 -235.375 7.9375 C-234.35148438 7.43089844 -233.32796875 6.92429687 -232.2734375 6.40234375 C-224.87627026 3.23339024 -218.64435583 2.68123984 -210.65234375 2.6640625 C-209.56345352 2.6574057 -208.47456329 2.6507489 -207.35267639 2.64389038 C-205.05227336 2.63379156 -202.75184119 2.6290725 -200.45141602 2.62939453 C-196.97296348 2.62504435 -193.49580464 2.58875692 -190.01757812 2.55078125 C-159.80566211 2.39694405 -159.80566211 2.39694405 -149 13 C-144.42015936 17.69283013 -140.2375371 22.27047851 -137 28 C-136.22857328 26.77120566 -135.45789096 25.54194398 -134.6875 24.3125 C-133.98947266 23.21035156 -133.98947266 23.21035156 -133.27734375 22.0859375 C-131.93057344 19.96114922 -131.93057344 19.96114922 -130.75 17.4375 C-124.9571026 9.36882148 -115.56837741 4.89823505 -106 3 C-99.21431216 2.28478594 -92.39109345 2.40363445 -85.57739258 2.51293945 C-82.43986013 2.56246275 -79.30390468 2.57444193 -76.16601562 2.58007812 C-43.0295942 2.7656451 -43.0295942 2.7656451 -30.9296875 13.91796875 C-27.49774516 17.6208539 -24.72781983 21.76335483 -22 26 C-20.47204648 23.70806972 -19.41984306 21.78272683 -18.3125 19.3125 C-14.86531488 12.35405568 -9.78074643 6.78460266 -3 3 C-2.34 3 -1.68 3 -1 3 C-0.67 2.01 -0.34 1.02 0 0 Z " fill="#000000" transform="translate(954,0)"/>
<path d="M0 0 C1.505839 -0.00287018 1.505839 -0.00287018 3.042099 -0.00579834 C5.1643804 -0.0071565 7.28667021 -0.00348587 9.40893555 0.00488281 C12.61722084 0.01550867 15.82493607 0.00501563 19.03320312 -0.0078125 C41.88278187 -0.02471916 41.88278187 -0.02471916 49.58984375 2.265625 C50.08484375 3.255625 50.08484375 3.255625 50.58984375 4.265625 C27.81984375 4.265625 5.04984375 4.265625 -18.41015625 4.265625 C-13.44534217 -0.69918908 -6.54775205 -0.02771915 0 0 Z " fill="#252525" transform="translate(858.41015625,2.734375)"/>
<path d="M0 0 C1.60232231 -0.00642769 1.60232231 -0.00642769 3.23701477 -0.01298523 C5.48523247 -0.01870761 7.73346868 -0.01924429 9.98168945 -0.01489258 C13.42496 -0.01171951 16.86738157 -0.03526378 20.31054688 -0.06054688 C22.49869683 -0.06281872 24.6868491 -0.0635239 26.875 -0.0625 C28.41881599 -0.07631462 28.41881599 -0.07631462 29.99382019 -0.09040833 C31.43100151 -0.08106514 31.43100151 -0.08106514 32.8972168 -0.0715332 C33.73770065 -0.07216263 34.57818451 -0.07279205 35.44413757 -0.07344055 C37.73828125 0.30078125 37.73828125 0.30078125 41.73828125 3.30078125 C21.60828125 3.63078125 1.47828125 3.96078125 -19.26171875 4.30078125 C-18.26171875 2.30078125 -18.26171875 2.30078125 -15.40307617 1.19458008 C-10.3256627 -0.12295057 -5.21438303 -0.00464495 0 0 Z " fill="#2A2A2A" transform="translate(743.26171875,2.69921875)"/>
<path d="M0 0 C1.0417337 -0.00191345 2.08346741 -0.0038269 3.1567688 -0.00579834 C5.35728192 -0.00715741 7.55780313 -0.00348043 9.75830078 0.00488281 C13.11379172 0.01556445 16.46874466 0.00498902 19.82421875 -0.0078125 C21.96614701 -0.00649043 24.10807493 -0.00392707 26.25 0 C27.24812714 -0.00404846 28.24625427 -0.00809692 29.27462769 -0.01226807 C34.66229564 0.0236999 39.16293447 0.48387741 44.2578125 2.265625 C44.2578125 2.595625 44.2578125 2.925625 44.2578125 3.265625 C24.1278125 3.595625 3.9978125 3.925625 -16.7421875 4.265625 C-15.7421875 2.265625 -15.7421875 2.265625 -13.85107422 1.15722656 C-9.2415117 -0.16475571 -4.77230346 -0.01927855 0 0 Z " fill="#282828" transform="translate(507.7421875,2.734375)"/>
<path d="M0 0 C1.33729156 -0.00956978 1.33729156 -0.00956978 2.70159912 -0.01933289 C3.65375305 -0.02044571 4.60590698 -0.02155853 5.58691406 -0.02270508 C6.57951233 -0.02603348 7.5721106 -0.02936188 8.5947876 -0.03279114 C10.69274432 -0.03784628 12.79070906 -0.0401999 14.88867188 -0.04003906 C18.07728552 -0.04221906 21.26554937 -0.06037209 24.45410156 -0.0793457 C26.49837122 -0.08228132 28.54264251 -0.08426499 30.58691406 -0.08520508 C32.00299957 -0.09598335 32.00299957 -0.09598335 33.44769287 -0.10697937 C39.16979688 -0.08750798 44.92871554 0.13788021 50.35253906 2.14526367 C50.84753906 3.13526367 50.84753906 3.13526367 51.35253906 4.14526367 C30.56253906 3.81526367 9.77253906 3.48526367 -11.64746094 3.14526367 C-8.38528996 -0.11690731 -4.4438867 0.02174658 0 0 Z " fill="#252525" transform="translate(157.6474609375,2.854736328125)"/>
<path d="M0 0 C1.41100983 0.0001133 1.41100983 0.0001133 2.8505249 0.00022888 C3.85794739 0.00539017 4.86536987 0.01055145 5.90332031 0.01586914 C6.94087463 0.01728409 7.97842896 0.01869904 9.04742432 0.02015686 C12.35879407 0.02575092 15.67009602 0.03830236 18.98144531 0.05102539 C21.22753809 0.05604116 23.47363192 0.06060393 25.71972656 0.06469727 C31.22365592 0.0757184 36.72754577 0.09245065 42.23144531 0.11352539 C42.23144531 0.77352539 42.23144531 1.43352539 42.23144531 2.11352539 C44.54144531 2.11352539 46.85144531 2.11352539 49.23144531 2.11352539 C49.23144531 2.44352539 49.23144531 2.77352539 49.23144531 3.11352539 C18.54144531 3.60852539 18.54144531 3.60852539 -12.76855469 4.11352539 C-8.08639024 0.60190206 -5.67616513 -0.01525851 0 0 Z " fill="#2D2D2D" transform="translate(619.7685546875,2.886474609375)"/>
<path d="M0 0 C6.4229243 -0.02543538 12.84583553 -0.04290272 19.26879883 -0.05493164 C21.452072 -0.05994843 23.63534182 -0.06676337 25.81860352 -0.07543945 C28.96371283 -0.08762147 32.10877757 -0.09325497 35.25390625 -0.09765625 C36.2239711 -0.10281754 37.19403595 -0.10797882 38.1934967 -0.11329651 C43.24174356 -0.11371077 48.02475387 0.1312108 53 1 C53 1.66 53 2.32 53 3 C33.53 3 14.06 3 -6 3 C-6 2.67 -6 2.34 -6 2 C-4.02 2 -2.04 2 0 2 C0 1.34 0 0.68 0 0 Z " fill="#252525" transform="translate(385,3)"/>
<path d="M0 0 C1.4379744 -0.00287018 1.4379744 -0.00287018 2.90499878 -0.00579834 C4.92381046 -0.00715494 6.94263103 -0.00349527 8.96142578 0.00488281 C12.05130543 0.01561325 15.1406068 0.00495755 18.23046875 -0.0078125 C20.19531378 -0.00649127 22.16015845 -0.00392964 24.125 0 C25.04797882 -0.00404846 25.97095764 -0.00809692 26.92190552 -0.01226807 C27.78315033 -0.00596375 28.64439514 0.00034058 29.53173828 0.00683594 C30.66375168 0.00922272 30.66375168 0.00922272 31.81863403 0.01165771 C34.2119705 0.29958466 35.84801484 1.07846508 37.9296875 2.265625 C37.9296875 2.595625 37.9296875 2.925625 37.9296875 3.265625 C10.7046875 3.760625 10.7046875 3.760625 -17.0703125 4.265625 C-16.0703125 2.265625 -16.0703125 2.265625 -13.63720703 1.15722656 C-9.02928075 0.00540269 -4.73107164 -0.02084332 0 0 Z " fill="#242424" transform="translate(274.0703125,2.734375)"/>
<path d="M0 0 C0.83772446 -0.0033284 1.67544891 -0.0066568 2.53855896 -0.01008606 C4.29742896 -0.01511635 6.05630837 -0.0174956 7.81518555 -0.01733398 C10.49218473 -0.01952805 13.16877619 -0.03774582 15.84570312 -0.05664062 C17.56380069 -0.05957395 19.28190019 -0.06155915 21 -0.0625 C22.18777794 -0.07327827 22.18777794 -0.07327827 23.39955139 -0.08427429 C28.28405483 -0.06435564 32.2971063 0.61452035 36.93359375 2.16796875 C36.93359375 2.49796875 36.93359375 2.82796875 36.93359375 3.16796875 C18.12359375 3.16796875 -0.68640625 3.16796875 -20.06640625 3.16796875 C-14.31351269 -0.66729362 -6.73957948 0.00949569 0 0 Z " fill="#242424" transform="translate(1099.06640625,2.83203125)"/>
<path d="M0 0 C1.18758911 0.04616455 1.18758911 0.04616455 2.39916992 0.09326172 C8.07949801 0.39199801 8.07949801 0.39199801 10.3125 2.625 C-9.4875 2.625 -29.2875 2.625 -49.6875 2.625 C-49.6875 2.295 -49.6875 1.965 -49.6875 1.625 C-44.34195158 0.57702593 -39.05274224 0.29842547 -33.625 0.0625 C-32.2167395 -0.0001001 -32.2167395 -0.0001001 -30.7800293 -0.06396484 C-20.49068387 -0.49818922 -10.28664961 -0.46798938 0 0 Z " fill="#181818" transform="translate(79.6875,3.375)"/>
<path d="M0 0 C12.27682098 -0.10598929 24.54251119 -0.08833398 36.8125 0.375 C38.27828491 0.4212854 38.27828491 0.4212854 39.77368164 0.46850586 C41.1328772 0.52663452 41.1328772 0.52663452 42.51953125 0.5859375 C43.31464111 0.6173584 44.10975098 0.6487793 44.92895508 0.68115234 C47 1 47 1 50 3 C32.51 3 15.02 3 -3 3 C-2.01 2.67 -1.02 2.34 0 2 C0 1.34 0 0.68 0 0 Z " fill="#232323" transform="translate(1199,3)"/>
<path d="M0 0 C1.06992187 0.00902344 2.13984375 0.01804688 3.2421875 0.02734375 C5.87002439 0.05080658 8.49739406 0.08363541 11.125 0.125 C10.795 1.115 10.465 2.105 10.125 3.125 C0.225 3.455 -9.675 3.785 -19.875 4.125 C-14.5726722 -1.1773278 -6.95556303 -0.11135754 0 0 Z " fill="#2E2E2E" transform="translate(859.875,2.875)"/>
<path d="M0 0 C11.88 0 23.76 0 36 0 C36 0.66 36 1.32 36 2 C38.31 2 40.62 2 43 2 C43 2.33 43 2.66 43 3 C39.3958502 3.02900455 35.79173038 3.04680018 32.1875 3.0625 C30.65125977 3.07506836 30.65125977 3.07506836 29.08398438 3.08789062 C27.60961914 3.09272461 27.60961914 3.09272461 26.10546875 3.09765625 C25.19949951 3.10289307 24.29353027 3.10812988 23.36010742 3.11352539 C21 3 21 3 18 2 C16.59335074 1.85507877 15.1818867 1.75371069 13.76953125 1.68359375 C12.56586914 1.62075195 12.56586914 1.62075195 11.33789062 1.55664062 C10.50451172 1.51732422 9.67113281 1.47800781 8.8125 1.4375 C7.96751953 1.39431641 7.12253906 1.35113281 6.25195312 1.30664062 C4.16815567 1.20068482 2.08409897 1.0998498 0 1 C0 0.67 0 0.34 0 0 Z " fill="#232323" transform="translate(626,3)"/>
<path d="M0 0 C0 0.66 0 1.32 0 2 C-7.59 2.33 -15.18 2.66 -23 3 C-22 1 -22 1 -19.6875 -0.125 C-13.35110561 -1.62855121 -6.2959581 -1.88276259 0 0 Z " fill="#373737" transform="translate(280,4)"/>
<path d="M0 0 C2.60478883 -0.0809313 5.20706653 -0.14045434 7.8125 -0.1875 C8.55048828 -0.21263672 9.28847656 -0.23777344 10.04882812 -0.26367188 C12.20703125 -0.29296875 12.20703125 -0.29296875 16 0 C16.99 0.99 17.98 1.98 19 3 C11.74 3 4.48 3 -3 3 C-2.01 2.67 -1.02 2.34 0 2 C0 1.34 0 0.68 0 0 Z " fill="#272727" transform="translate(1199,3)"/>
<path d="M0 0 C5.94 0 11.88 0 18 0 C17.01 0.33 16.02 0.66 15 1 C15 1.66 15 2.32 15 3 C8.07 3 1.14 3 -6 3 C-6 2.67 -6 2.34 -6 2 C-4.02 2 -2.04 2 0 2 C0 1.34 0 0.68 0 0 Z " fill="#282828" transform="translate(385,3)"/>
<path d="M0 0 C1.16080078 0.00902344 2.32160156 0.01804688 3.51757812 0.02734375 C6.36610108 0.05078838 9.21419078 0.08360478 12.0625 0.125 C12.0625 0.455 12.0625 0.785 12.0625 1.125 C11.47758789 1.14481934 10.89267578 1.16463867 10.29003906 1.18505859 C7.63041975 1.28053481 4.97156162 1.39012142 2.3125 1.5 C1.39210938 1.5309375 0.47171875 1.561875 -0.4765625 1.59375 C-1.36601563 1.63242188 -2.25546875 1.67109375 -3.171875 1.7109375 C-3.98881836 1.7423584 -4.80576172 1.7737793 -5.64746094 1.80615234 C-8.1166668 2.14994582 -9.75362093 2.96041824 -11.9375 4.125 C-14.296875 4.3203125 -14.296875 4.3203125 -16.6875 4.25 C-17.48671875 4.23195313 -18.2859375 4.21390625 -19.109375 4.1953125 C-19.71265625 4.17210937 -20.3159375 4.14890625 -20.9375 4.125 C-19.9375 2.125 -19.9375 2.125 -17.18359375 1.0078125 C-11.56546116 -0.45953519 -5.76008494 -0.08514054 0 0 Z " fill="#212121" transform="translate(744.9375,2.875)"/>
<path d="M0 0 C5.83094895 -0.21203451 11.44413776 0.03052586 17 2 C17.33 2.66 17.66 3.32 18 4 C12.06 3.67 6.12 3.34 0 3 C0 2.01 0 1.02 0 0 Z " fill="#151515" transform="translate(191,3)"/>
<path d="M0 0 C0 0.66 0 1.32 0 2 C-6.93 2 -13.86 2 -21 2 C-14.64026297 -2.23982468 -7.23263383 -0.96336311 0 0 Z " fill="#343434" transform="translate(1100,4)"/>
<path d="M0 0 C5.61 0 11.22 0 17 0 C16.67 0.99 16.34 1.98 16 3 C12.7 3 9.4 3 6 3 C6 2.34 6 1.68 6 1 C4.02 1 2.04 1 0 1 C0 0.67 0 0.34 0 0 Z " fill="#272727" transform="translate(854,3)"/>
<path d="M0 0 C0 0.66 0 1.32 0 2 C-5.61 2 -11.22 2 -17 2 C-12.41022927 -2.58977073 -5.90018401 -0.74468342 0 0 Z " fill="#343434" transform="translate(163,4)"/>
<path d="M0 0 C1.91731918 0.11455681 3.8338675 0.24206258 5.75 0.375 C7.35101562 0.47941406 7.35101562 0.47941406 8.984375 0.5859375 C11.80206432 0.9728223 13.5830366 1.55686166 16 3 C12.33012779 4.22329074 9.66032178 3.88021006 5.8125 3.5625 C4.54019531 3.46066406 3.26789062 3.35882813 1.95703125 3.25390625 C0.98121094 3.17011719 0.00539063 3.08632812 -1 3 C-0.67 2.01 -0.34 1.02 0 0 Z " fill="#131313" transform="translate(893,3)"/>
<path d="M0 0 C2 1.8125 2 1.8125 4 4 C4 4.99 4 5.98 4 7 C4.66 7 5.32 7 6 7 C6 10.3 6 13.6 6 17 C4.39577281 13.79154562 3.09692547 10.7330322 1.875 7.375 C1.52179687 6.41335937 1.16859375 5.45171875 0.8046875 4.4609375 C0 2 0 2 0 0 Z " fill="#1A1A1A" transform="translate(928,22)"/>
<path d="M0 0 C0 0.66 0 1.32 0 2 C-0.99 2 -1.98 2 -3 2 C-3 2.66 -3 3.32 -3 4 C-5.97 4 -8.94 4 -12 4 C-11 2 -11 2 -8.25 0.875 C-5.29813104 0.08026605 -3.02780163 -0.17810598 0 0 Z " fill="#1F1F1F" transform="translate(269,3)"/>
<path d="M0 0 C4.29 0.33 8.58 0.66 13 1 C13 1.33 13 1.66 13 2 C8.59085217 3.10228696 4.51617599 3.07654536 0 3 C0 2.01 0 1.02 0 0 Z " fill="#191919" transform="translate(1218,3)"/>
<path d="M0 0 C0.66 0 1.32 0 2 0 C2 1.32 2 2.64 2 4 C2.66 4 3.32 4 4 4 C3.67 6.64 3.34 9.28 3 12 C2.34 12 1.68 12 1 12 C0.67 8.04 0.34 4.08 0 0 Z " fill="#1D1D1D" transform="translate(1048,25)"/>
<path d="M0 0 C1.37432457 3.81756824 0.67975039 7.07255329 0 11 C-0.66 11 -1.32 11 -2 11 C-2.33 8.03 -2.66 5.06 -3 2 C-2.01 2 -1.02 2 0 2 C0 1.34 0 0.68 0 0 Z " fill="#191919" transform="translate(701,28)"/>
<path d="M0 0 C3.3 0.33 6.6 0.66 10 1 C10 1.66 10 2.32 10 3 C6.7 3 3.4 3 0 3 C0 2.01 0 1.02 0 0 Z " fill="#141414" transform="translate(428,3)"/>
<path d="M0 0 C0.33 0 0.66 0 1 0 C1.36504603 1.58086048 1.71660506 3.16483907 2.0625 4.75 C2.25972656 5.63171875 2.45695313 6.5134375 2.66015625 7.421875 C2.99825872 9.98679028 2.81158635 11.57091639 2 14 C-0.28062828 10.57905758 -0.21925007 9.31812778 -0.125 5.3125 C-0.10695312 4.31863281 -0.08890625 3.32476562 -0.0703125 2.30078125 C-0.04710937 1.54152344 -0.02390625 0.78226562 0 0 Z " fill="#1B1B1B" transform="translate(0,469)"/>
<path d="M0 0 C0.99 0 1.98 0 3 0 C3 3.3 3 6.6 3 10 C2.34 10 1.68 10 1 10 C0.67 6.7 0.34 3.4 0 0 Z " fill="#131313" transform="translate(815,30)"/>
<path d="M0 0 C4.27786748 0.49360009 7.09567131 1.04783565 11 3 C7.37 3 3.74 3 0 3 C0 2.01 0 1.02 0 0 Z " fill="#212121" transform="translate(541,3)"/>
<path d="M0 0 C4.27786748 0.49360009 7.09567131 1.04783565 11 3 C7.7 3 4.4 3 1 3 C0.67 2.01 0.34 1.02 0 0 Z " fill="#171717" transform="translate(1125,3)"/>
<path d="M0 0 C-0.66 3.63 -1.32 7.26 -2 11 C-2.33 11 -2.66 11 -3 11 C-3.33 7.7 -3.66 4.4 -4 1 C-2 0 -2 0 0 0 Z " fill="#171717" transform="translate(469,29)"/>
<path d="M0 0 C1.98 0 3.96 0 6 0 C6.66 1.32 7.32 2.64 8 4 C5.36 3.34 2.72 2.68 0 2 C0 1.34 0 0.68 0 0 Z " fill="#171717" transform="translate(1022,0)"/>
</svg>
