<svg width="159" height="47" viewBox="0 0 159 47" fill="none" xmlns="http://www.w3.org/2000/svg">
<path d="M152.95 1.52275C155.674 1.52275 157.89 3.67974 157.89 6.33052V40.682C157.89 43.3328 155.674 45.4898 152.95 45.4898H5.88269C3.159 45.4898 0.9427 43.3328 0.9427 40.682V6.33052C0.9427 3.67974 3.159 1.52275 5.88269 1.52275H152.95ZM152.95 0.605282H5.88269C2.64868 0.605282 0 3.18307 0 6.33052V40.682C0 43.8294 2.64868 46.4072 5.88269 46.4072H152.95C156.184 46.4072 158.833 43.8294 158.833 40.682V6.33052C158.833 3.18307 156.184 0.605282 152.95 0.605282Z" fill="#A6A6A6"/>
</svg>
