<svg width="159" height="46" viewBox="0 0 159 46" fill="none" xmlns="http://www.w3.org/2000/svg">
<path d="M152.949 0.917277C155.673 0.917277 157.889 3.07426 157.889 5.72505V40.0765C157.889 42.7273 155.673 44.8843 152.949 44.8843H5.88171C3.15803 44.8843 0.941724 42.7273 0.941724 40.0765V5.72505C0.941724 3.07426 3.15803 0.917277 5.88171 0.917277H152.949ZM152.949 -0.000191689H5.88171C2.6477 -0.000191689 -0.000976562 2.5776 -0.000976562 5.72505V40.0765C-0.000976562 43.224 2.6477 45.8018 5.88171 45.8018H152.949C156.183 45.8018 158.832 43.224 158.832 40.0765V5.72505C158.832 2.5776 156.183 -0.000191689 152.949 -0.000191689Z" fill="#A6A6A6"/>
</svg>
