<?xml version="1.0" standalone="no"?>
<!DOCTYPE svg PUBLIC "-//W3C//DTD SVG 20010904//EN"
 "http://www.w3.org/TR/2001/REC-SVG-20010904/DTD/svg10.dtd">
<svg version="1.0" xmlns="http://www.w3.org/2000/svg"
 width="100.000000pt" height="100.000000pt" viewBox="0 0 100.000000 100.000000"
 preserveAspectRatio="xMidYMid meet">

<g transform="translate(0.000000,100.000000) scale(0.100000,-0.100000)"
fill="#000000" stroke="none">
<path d="M388 930 c-20 -11 -48 -35 -61 -52 -48 -64 -97 -241 -97 -348 0 -74
8 -99 43 -137 l20 -22 -47 -21 c-26 -11 -51 -20 -55 -20 -19 0 -78 -71 -89
-107 -7 -22 -12 -75 -12 -117 l0 -76 415 0 415 0 0 88 c0 48 -5 104 -11 125
-12 45 -66 88 -140 112 -27 9 -49 19 -49 21 0 3 9 17 21 33 43 58 35 193 -21
357 -34 99 -52 132 -83 143 -122 46 -190 52 -249 21z m240 -164 c13 -18 26
-50 29 -70 4 -26 9 -34 16 -27 32 32 36 -12 8 -67 -10 -20 -26 -53 -35 -72 -8
-19 -23 -47 -33 -63 -24 -37 -10 -58 52 -78 l49 -15 -35 -27 c-81 -61 -173
-82 -250 -55 -46 16 -130 68 -125 77 3 4 23 14 46 21 55 18 64 38 39 81 -10
19 -26 50 -34 69 -9 19 -20 42 -25 50 -20 30 -31 64 -25 78 5 12 9 12 25 -3
18 -16 20 -16 20 -2 0 28 58 85 103 100 23 8 51 18 61 23 16 6 18 4 13 -9 -9
-23 15 -22 44 3 13 10 26 19 29 20 3 0 15 -15 28 -34z"/>
</g>
</svg>
