<?xml version="1.0" encoding="UTF-8"?>
<svg version="1.1" xmlns="http://www.w3.org/2000/svg" width="231" height="29">
<path d="M0 0 C76.23 0 152.46 0 231 0 C231 9.57 231 19.14 231 29 C154.77 29 78.54 29 0 29 C0 19.43 0 9.86 0 0 Z " fill="#0E0E0E" transform="translate(0,0)"/>
<path d="M0 0 C1.59142319 0.0001133 1.59142319 0.0001133 3.21499634 0.00022888 C4.93847794 0.00797081 4.93847794 0.00797081 6.69677734 0.01586914 C7.87033783 0.01728409 9.04389832 0.01869904 10.25302124 0.02015686 C14.0129447 0.0257685 17.77280929 0.03832301 21.53271484 0.05102539 C24.07698482 0.05603889 26.62125572 0.06060206 29.16552734 0.06469727 C35.41294337 0.07574171 41.6603249 0.09249121 47.90771484 0.11352539 C47.57771484 0.77352539 47.24771484 1.43352539 46.90771484 2.11352539 C44.26771484 1.78352539 41.62771484 1.45352539 38.90771484 1.11352539 C38.90771484 1.77352539 38.90771484 2.43352539 38.90771484 3.11352539 C39.48005859 3.36875977 40.05240234 3.62399414 40.64208984 3.88696289 C43.14945217 5.24439698 45.04076045 6.83326643 47.15771484 8.73852539 C47.86412109 9.37016602 48.57052734 10.00180664 49.29833984 10.65258789 C50.09498047 11.37575195 50.09498047 11.37575195 50.90771484 12.11352539 C49.29718749 16.21304957 46.36885959 18.91239711 43.22021484 21.86352539 C42.71554688 22.37012695 42.21087891 22.87672852 41.69091797 23.39868164 C38.70452973 26.20007238 37.14434108 27.09358898 33.01318359 27.44165039 C31.98837891 27.33336914 30.96357422 27.22508789 29.90771484 27.11352539 C29.90771484 26.78352539 29.90771484 26.45352539 29.90771484 26.11352539 C31.88771484 26.11352539 33.86771484 26.11352539 35.90771484 26.11352539 C33.97387179 22.86133624 32.0350049 19.61217034 30.09521484 16.36352539 C29.54800781 15.44313477 29.00080078 14.52274414 28.43701172 13.57446289 C27.90527344 12.68500977 27.37353516 11.79555664 26.82568359 10.87915039 C26.33865967 10.06220703 25.85163574 9.24526367 25.34985352 8.40356445 C24.87394775 7.64785156 24.39804199 6.89213867 23.90771484 6.11352539 C23.26056519 4.97608887 23.26056519 4.97608887 22.6003418 3.81567383 C20.94664337 1.83242175 20.94664337 1.83242175 17.94824219 1.54907227 C14.78620297 1.82411875 14.78620297 1.82411875 12.94140625 4.22485352 C12.38630371 5.18842773 11.83120117 6.15200195 11.25927734 7.14477539 C10.64697266 8.1824707 10.03466797 9.22016602 9.40380859 10.28930664 C8.78634766 11.38629883 8.16888672 12.48329102 7.53271484 13.61352539 C6.57171875 15.25901367 6.57171875 15.25901367 5.59130859 16.93774414 C4.00987987 19.65213673 2.4501144 22.3768263 0.90771484 25.11352539 C2.22771484 25.77352539 3.54771484 26.43352539 4.90771484 27.11352539 C-0.70228516 27.11352539 -6.31228516 27.11352539 -12.09228516 27.11352539 C-12.09228516 26.78352539 -12.09228516 26.45352539 -12.09228516 26.11352539 C-8.62728516 25.61852539 -8.62728516 25.61852539 -5.09228516 25.11352539 C-5.81416016 24.69200195 -6.53603516 24.27047852 -7.27978516 23.83618164 C-8.20791016 23.28833008 -9.13603516 22.74047852 -10.09228516 22.17602539 C-11.02041016 21.63075195 -11.94853516 21.08547852 -12.90478516 20.52368164 C-13.62666016 20.05833008 -14.34853516 19.59297852 -15.09228516 19.11352539 C-15.09228516 18.78352539 -15.09228516 18.45352539 -15.09228516 18.11352539 C-14.026875 17.91436523 -14.026875 17.91436523 -12.93994141 17.71118164 C-12.02083984 17.53458008 -11.10173828 17.35797852 -10.15478516 17.17602539 C-9.23826172 17.00200195 -8.32173828 16.82797852 -7.37744141 16.64868164 C-5.13938671 16.33637551 -5.13938671 16.33637551 -4.09228516 15.11352539 C-3.94092572 13.32631969 -3.87052738 11.53190663 -3.84228516 9.73852539 C-3.81650391 8.76141602 -3.79072266 7.78430664 -3.76416016 6.77758789 C-3.85766712 4.06389618 -3.85766712 4.06389618 -5.60791016 2.26196289 C-6.09775391 1.88297852 -6.58759766 1.50399414 -7.09228516 1.11352539 C-4.56484427 -0.15019505 -2.82848207 -0.00670256 0 0 Z " fill="#0E0E0E" transform="translate(155.09228515625,-0.113525390625)"/>
<path d="M0 0 C4.0425 -0.061875 8.085 -0.12375 12.25 -0.1875 C13.51875977 -0.21481201 14.78751953 -0.24212402 16.09472656 -0.27026367 C17.60244629 -0.28150269 17.60244629 -0.28150269 19.140625 -0.29296875 C20.16704102 -0.3086792 21.19345703 -0.32438965 22.25097656 -0.34057617 C25.40393961 0.05004403 26.75339305 0.78465076 29 3 C29.53125 5.59375 29.53125 5.59375 29.5 8.5 C29.5103125 9.4590625 29.520625 10.418125 29.53125 11.40625 C29 14 29 14 27.203125 15.80078125 C24.20802248 17.43109415 21.3652412 17.67641912 18 18 C18.721875 18.42152344 19.44375 18.84304687 20.1875 19.27734375 C21.115625 19.82519531 22.04375 20.37304688 23 20.9375 C23.928125 21.48277344 24.85625 22.02804688 25.8125 22.58984375 C26.534375 23.05519531 27.25625 23.52054688 28 24 C28 24.33 28 24.66 28 25 C19.27340878 26.01810231 14.17006257 22.75577755 7 18 C6.67 20.31 6.34 22.62 6 25 C4.02 25 2.04 25 0 25 C0 16.75 0 8.5 0 0 Z " fill="#F0F0F0" transform="translate(123,1)"/>
<path d="M0 0 C3.55463741 0.9469321 4.30001241 1.86111197 6.234375 4.94921875 C6.81058594 5.85027344 7.38679688 6.75132813 7.98046875 7.6796875 C8.60050781 8.69675781 9.22054687 9.71382812 9.859375 10.76171875 C10.59838692 11.9256708 11.33933465 13.08839561 12.08203125 14.25 C17.859375 23.38294817 17.859375 23.38294817 17.859375 25.76171875 C15.046875 26.01171875 15.046875 26.01171875 11.859375 25.76171875 C11.488125 25.10171875 11.116875 24.44171875 10.734375 23.76171875 C9.08738941 21.60163999 9.08738941 21.60163999 6.93676758 21.43261719 C4.50470769 21.36778284 2.10280381 21.41395518 -0.328125 21.51171875 C-1.5955957 21.53878906 -1.5955957 21.53878906 -2.88867188 21.56640625 C-4.97314073 21.61351289 -7.05702644 21.68525642 -9.140625 21.76171875 C-9.800625 23.08171875 -10.460625 24.40171875 -11.140625 25.76171875 C-13.450625 25.76171875 -15.760625 25.76171875 -18.140625 25.76171875 C-15.30097959 19.89578456 -12.21517401 14.29057924 -8.765625 8.76171875 C-8.30929688 7.98699219 -7.85296875 7.21226562 -7.3828125 6.4140625 C-3.95843514 0.96006822 -3.95843514 0.96006822 0 0 Z " fill="#F3F3F3" transform="translate(173.140625,0.23828125)"/>
<path d="M0 0 C3.01091142 -0.36976105 5.07741606 -0.61528083 8 0 C10.01941207 1.68146964 11.65996296 3.5318479 13.4140625 5.484375 C14.9481201 7.25299809 14.9481201 7.25299809 17.5625 7.3125 C19.96271582 6.0200761 21.03247298 4.93763789 22.8125 2.9375 C24.6239269 0.95580843 25.49141402 0.09288822 28.16015625 -0.39453125 C30.375 -0.375 30.375 -0.375 34 0 C30.32167983 4.52615993 26.58913637 8.39424999 22 12 C22.680625 12.680625 23.36125 13.36125 24.0625 14.0625 C24.51109375 14.51238281 24.9596875 14.96226563 25.421875 15.42578125 C26.57305686 16.57411365 27.73012787 17.71655111 28.890625 18.85546875 C29.52484375 19.48066406 30.1590625 20.10585938 30.8125 20.75 C31.41707031 21.34296875 32.02164063 21.9359375 32.64453125 22.546875 C34 24 34 24 34 25 C29.52454269 25.65097561 27.24217071 25.87277326 23.46484375 23.21875 C21.23266827 21.20943832 19.0844493 19.16165112 17 17 C15.70684939 17.95632999 14.41553147 18.91513851 13.125 19.875 C12.40570313 20.40867187 11.68640625 20.94234375 10.9453125 21.4921875 C8.91747368 22.99873162 8.91747368 22.99873162 7 25 C4.31160615 25.26991906 1.70858064 25.08737357 -1 25 C3 21 7 17 11 13 C9.73892081 9.21676243 8.09381903 8.31250799 4.9375 5.9375 C3.25597473 4.67104969 1.60015053 3.36782378 0 2 C0 1.34 0 0.68 0 0 Z " fill="#F1F1F1" transform="translate(194,1)"/>
<path d="M0 0 C1.08667969 0.01804688 2.17335938 0.03609375 3.29296875 0.0546875 C4.54013672 0.08949219 4.54013672 0.08949219 5.8125 0.125 C5.8125 1.775 5.8125 3.425 5.8125 5.125 C1.3575 5.62 1.3575 5.62 -3.1875 6.125 C-3.5175 7.445 -3.8475 8.765 -4.1875 10.125 C-2.92292969 10.09019531 -1.65835937 10.05539062 -0.35546875 10.01953125 C1.30467423 9.99139323 2.96483156 9.96409309 4.625 9.9375 C5.87506836 9.89979492 5.87506836 9.89979492 7.15039062 9.86132812 C8.35405273 9.84682617 8.35405273 9.84682617 9.58203125 9.83203125 C10.68961792 9.80846558 10.68961792 9.80846558 11.81958008 9.78442383 C14.37999545 10.22198103 15.24335208 11.09297928 16.8125 13.125 C17.2109375 15.53515625 17.2109375 15.53515625 17.1875 18.1875 C17.19523437 19.06535156 17.20296875 19.94320313 17.2109375 20.84765625 C17.07945313 21.59917969 16.94796875 22.35070312 16.8125 23.125 C13.46130481 25.35913013 12.3947245 25.36347762 8.48828125 25.3203125 C6.94624023 25.31064453 6.94624023 25.31064453 5.37304688 25.30078125 C4.30119141 25.28402344 3.22933594 25.26726563 2.125 25.25 C1.04154297 25.24097656 -0.04191406 25.23195313 -1.15820312 25.22265625 C-3.8348571 25.1990734 -6.51106797 25.16616126 -9.1875 25.125 C-9.1875 23.475 -9.1875 21.825 -9.1875 20.125 C-2.2575 20.125 4.6725 20.125 11.8125 20.125 C11.4825 18.805 11.1525 17.485 10.8125 16.125 C9.02392578 16.05152344 9.02392578 16.05152344 7.19921875 15.9765625 C5.63278932 15.90152396 4.06638421 15.8259766 2.5 15.75 C1.71431641 15.7190625 0.92863281 15.688125 0.11914062 15.65625 C-0.63818359 15.61757813 -1.39550781 15.57890625 -2.17578125 15.5390625 C-3.22052612 15.49193115 -3.22052612 15.49193115 -4.28637695 15.44384766 C-6.1875 15.125 -6.1875 15.125 -9.1875 13.125 C-9.5859375 10.59375 -9.5859375 10.59375 -9.5625 7.625 C-9.57023438 6.6453125 -9.57796875 5.665625 -9.5859375 4.65625 C-9.45445313 3.8209375 -9.32296875 2.985625 -9.1875 2.125 C-5.66070901 -0.22619399 -4.15870515 -0.08943452 0 0 Z " fill="#EDEDED" transform="translate(11.1875,0.875)"/>
<path d="M0 0 C1.12148437 0.00322266 2.24296875 0.00644531 3.3984375 0.00976562 C4.5740625 0.01814453 5.7496875 0.02652344 6.9609375 0.03515625 C8.14429688 0.03966797 9.32765625 0.04417969 10.546875 0.04882812 C13.47661257 0.06064158 16.40625022 0.07711367 19.3359375 0.09765625 C19.3359375 0.42765625 19.3359375 0.75765625 19.3359375 1.09765625 C18.20828979 1.18648071 18.20828979 1.18648071 17.05786133 1.27709961 C13.37483934 2.38739084 12.70523592 3.94268793 10.78515625 7.2265625 C9.86186523 8.77827148 9.86186523 8.77827148 8.91992188 10.36132812 C7.98116211 11.99424805 7.98116211 11.99424805 7.0234375 13.66015625 C6.37826172 14.75263672 5.73308594 15.84511719 5.06835938 16.97070312 C3.47617821 19.67151415 1.89962371 22.38028052 0.3359375 25.09765625 C1.6559375 25.75765625 2.9759375 26.41765625 4.3359375 27.09765625 C-1.2740625 27.09765625 -6.8840625 27.09765625 -12.6640625 27.09765625 C-12.6640625 26.76765625 -12.6640625 26.43765625 -12.6640625 26.09765625 C-9.1990625 25.60265625 -9.1990625 25.60265625 -5.6640625 25.09765625 C-6.3859375 24.67613281 -7.1078125 24.25460938 -7.8515625 23.8203125 C-8.7796875 23.27246094 -9.7078125 22.72460938 -10.6640625 22.16015625 C-11.5921875 21.61488281 -12.5203125 21.06960937 -13.4765625 20.5078125 C-14.1984375 20.04246094 -14.9203125 19.57710937 -15.6640625 19.09765625 C-15.6640625 18.76765625 -15.6640625 18.43765625 -15.6640625 18.09765625 C-14.59865234 17.89849609 -14.59865234 17.89849609 -13.51171875 17.6953125 C-12.59261719 17.51871094 -11.67351562 17.34210937 -10.7265625 17.16015625 C-9.81003906 16.98613281 -8.89351562 16.81210937 -7.94921875 16.6328125 C-5.71116406 16.32050637 -5.71116406 16.32050637 -4.6640625 15.09765625 C-4.51270306 13.31045055 -4.44230472 11.51603749 -4.4140625 9.72265625 C-4.38828125 8.74554688 -4.3625 7.7684375 -4.3359375 6.76171875 C-4.42944446 4.04802704 -4.42944446 4.04802704 -6.1796875 2.24609375 C-6.66953125 1.86710938 -7.159375 1.488125 -7.6640625 1.09765625 C-5.00228029 -0.23323485 -2.97666854 -0.01503368 0 0 Z " fill="#141414" transform="translate(155.6640625,-0.09765625)"/>
<path d="M0 0 C3.83870549 -0.55981122 5.89222458 -0.80154437 9.10546875 1.5234375 C10.46744267 2.7755336 11.80259739 4.05760837 13.10546875 5.37109375 C15.11211704 7.09639754 16.41761216 7.59346001 19 8 C19 7.34 19 6.68 19 6 C21.5228384 2.95682619 24.27256435 0.30042359 28.24609375 -0.390625 C30.4375 -0.375 30.4375 -0.375 34 0 C30.57338216 4.71159953 26.40481284 8.25036528 22 12 C20.18884044 13.81115956 20.61800552 16.61278227 20.4375 19.0625 C20.35371094 20.16722656 20.26992187 21.27195312 20.18359375 22.41015625 C20.09271484 23.69212891 20.09271484 23.69212891 20 25 C18.02 25 16.04 25 14 25 C14.020625 24.21496094 14.04125 23.42992188 14.0625 22.62109375 C14.02806656 16.30247007 14.02806656 16.30247007 11.328125 10.78515625 C9.2931901 9.03710127 7.22669655 7.49423058 5 6 C3.30955344 4.69694744 1.63128444 3.37639625 0 2 C0 1.34 0 0.68 0 0 Z " fill="#EDEDED" transform="translate(59,1)"/>
<path d="M0 0 C8.91 0 17.82 0 27 0 C27 1.65 27 3.3 27 5 C23.7 5 20.4 5 17 5 C17 11.6 17 18.2 17 25 C15.02 25 13.04 25 11 25 C11 18.4 11 11.8 11 5 C7.37 5 3.74 5 0 5 C0 3.35 0 1.7 0 0 Z " fill="#F0F0F0" transform="translate(30,1)"/>
<path d="M0 0 C1.98 0 3.96 0 6 0 C6.33 6.27 6.66 12.54 7 19 C12.94 19.33 18.88 19.66 25 20 C25 21.65 25 23.3 25 25 C21.58378212 25.14539953 18.16836009 25.23409725 14.75 25.3125 C13.78191406 25.35439453 12.81382813 25.39628906 11.81640625 25.43945312 C4.79408091 25.5605277 4.79408091 25.5605277 1.34375 23.125 C-0.60127487 18.60168634 -0.42876249 14.55190232 -0.25 9.6875 C-0.23195313 8.75615234 -0.21390625 7.82480469 -0.1953125 6.86523438 C-0.14834888 4.57575803 -0.08269475 2.28841816 0 0 Z " fill="#EFEFEF" transform="translate(95,1)"/>
<path d="M0 0 C2.81256281 -0.02684312 5.62487241 -0.04676188 8.4375 -0.0625 C9.23994141 -0.07087891 10.04238281 -0.07925781 10.86914062 -0.08789062 C12.91295221 -0.0965143 14.95683902 -0.0522815 17 0 C18 1 18 1 18.125 3.5 C18 6 18 6 17 7 C14.13732433 7.07325168 11.299281 7.09238205 8.4375 7.0625 C7.63119141 7.05798828 6.82488281 7.05347656 5.99414062 7.04882812 C3.99606244 7.03700518 1.99802217 7.01906914 0 7 C0 4.69 0 2.38 0 0 Z " fill="#121212" transform="translate(129,6)"/>
<path d="M0 0 C0.66 0 1.32 0 2 0 C6 6.75 6 6.75 6 9 C2.7 9 -0.6 9 -4 9 C-2.80100302 5.9168649 -1.52299523 2.93720508 0 0 Z " fill="#1B1B1B" transform="translate(172,7)"/>
<path d="M0 0 C5.61 0 11.22 0 17 0 C17 0.33 17 0.66 17 1 C15.75283203 1.09087891 15.75283203 1.09087891 14.48046875 1.18359375 C12.85044922 1.30927734 12.85044922 1.30927734 11.1875 1.4375 C10.10855469 1.51871094 9.02960937 1.59992187 7.91796875 1.68359375 C4.94010095 1.90212461 4.94010095 1.90212461 2 3 C2 5.97 2 8.94 2 12 C1.67 12 1.34 12 1 12 C0.67 8.04 0.34 4.08 0 0 Z " fill="#1C1C1C" transform="translate(0,0)"/>
</svg>
