<?xml version="1.0" standalone="no"?>
<!DOCTYPE svg PUBLIC "-//W3C//DTD SVG 20010904//EN"
 "http://www.w3.org/TR/2001/REC-SVG-20010904/DTD/svg10.dtd">
<svg version="1.0" xmlns="http://www.w3.org/2000/svg"
 width="100.000000pt" height="100.000000pt" viewBox="0 0 100.000000 100.000000"
 preserveAspectRatio="xMidYMid meet">

<g transform="translate(0.000000,100.000000) scale(0.100000,-0.100000)"
fill="#000000" stroke="none">
<path d="M460 929 c0 -3 -13 -9 -29 -12 -17 -4 -41 -22 -59 -45 -30 -38 -32
-43 -34 -145 -1 -82 2 -111 13 -124 27 -32 39 -73 39 -133 0 -58 1 -59 50
-101 l50 -43 -23 -24 c-21 -23 -21 -24 -4 -37 17 -12 17 -15 3 -44 -9 -16 -16
-53 -16 -81 0 -27 -4 -50 -9 -50 -5 0 -25 41 -45 90 -30 74 -36 103 -36 161 0
56 -3 69 -12 61 -7 -5 -62 -25 -123 -43 -60 -18 -115 -37 -122 -42 -15 -11
-48 -112 -63 -192 -6 -33 -14 -68 -16 -77 -5 -17 22 -18 470 -18 l476 0 0 23
c-1 34 -36 189 -53 230 -15 34 -20 37 -134 72 -65 20 -123 41 -129 46 -8 6
-13 -15 -17 -74 -4 -62 -14 -100 -38 -154 -18 -40 -36 -73 -40 -73 -5 0 -9 18
-9 40 0 22 -7 57 -15 78 -10 24 -12 38 -5 40 15 5 12 33 -6 53 -14 16 -11 20
36 60 50 44 50 44 48 99 -1 49 16 116 33 130 13 10 29 84 20 93 -4 4 -6 38 -3
75 4 67 4 68 -35 111 -35 39 -44 43 -101 50 -34 4 -62 4 -62 0z"/>
</g>
</svg>
