<?xml version="1.0" encoding="UTF-8"?>
<svg version="1.1" xmlns="http://www.w3.org/2000/svg" width="279" height="238">
<path d="M0 0 C92.07 0 184.14 0 279 0 C279 78.54 279 157.08 279 238 C186.93 238 94.86 238 0 238 C0 159.46 0 80.92 0 0 Z " fill="#F7F7F7" transform="translate(0,0)"/>
<path d="M0 0 C28.05 0 56.1 0 85 0 C85 0.33 85 0.66 85 1 C83.02 1 81.04 1 79 1 C79 6.28 79 11.56 79 17 C80.32 17 81.64 17 83 17 C83 15.35 83 13.7 83 12 C85.42795383 12.94420427 87.77341964 13.87641071 90.0625 15.125 C92.25326058 16.27439115 92.25326058 16.27439115 96 16 C95.175 15.54625 94.35 15.0925 93.5 14.625 C92.2625 13.820625 92.2625 13.820625 91 13 C91 12.34 91 11.68 91 11 C93.475 10.505 93.475 10.505 96 10 C96.020625 8.72125 96.04125 7.4425 96.0625 6.125 C96.07410156 5.40570313 96.08570312 4.68640625 96.09765625 3.9453125 C96.12649242 1.91814596 96.12649242 1.91814596 95 0 C99.62 0 104.24 0 109 0 C107.47090619 3.82273453 106.22455345 6.35456976 103.9375 9.625 C102.16012171 12.17156156 100.98934061 14.03197816 100 17 C103.12197478 15.6910428 103.12197478 15.6910428 105 13 C106.95766281 12.91917906 108.91626728 12.86089222 110.875 12.8125 C112.51082031 12.76029297 112.51082031 12.76029297 114.1796875 12.70703125 C115.11039062 12.80371094 116.04109375 12.90039062 117 13 C117.99 14.485 117.99 14.485 119 16 C120.485 16.495 120.485 16.495 122 17 C121.06652642 15.24784894 120.1280468 13.49836437 119.1875 11.75 C118.66542969 10.77546875 118.14335938 9.8009375 117.60546875 8.796875 C116.09244481 6.02207169 116.09244481 6.02207169 114.30078125 3.765625 C113 2 113 2 113 0 C124.55 0 136.1 0 148 0 C148 5.94 148 11.88 148 18 C99.16 18 50.32 18 0 18 C0 12.06 0 6.12 0 0 Z " fill="#353535" transform="translate(0,136)"/>
<path d="M0 0 C0.85078125 -0.01417969 1.7015625 -0.02835938 2.578125 -0.04296875 C4.75 0.1875 4.75 0.1875 6.75 2.1875 C7.07752234 4.90204956 6.8808425 7.43980759 6.75 10.1875 C5.75 11.1875 5.75 11.1875 3.1875 11.25 C2.383125 11.229375 1.57875 11.20875 0.75 11.1875 C0.75 11.8475 0.75 12.5075 0.75 13.1875 C1.9565625 13.620625 1.9565625 13.620625 3.1875 14.0625 C5.75 15.1875 5.75 15.1875 6.75 17.1875 C1.04290936 16.72161505 -2.40939723 15.24992216 -7.25 12.1875 C-7.25 13.8375 -7.25 15.4875 -7.25 17.1875 C-8.57 17.1875 -9.89 17.1875 -11.25 17.1875 C-11.25 11.9075 -11.25 6.6275 -11.25 1.1875 C-7.26595006 0.52349168 -3.95082044 0.0302977 0 0 Z " fill="#E7E7E7" transform="translate(90.25,135.8125)"/>
<path d="M0 0 C3.51166495 1.56073998 6.37910355 3.16069552 9 6 C9.43656935 9.12066238 9.23339425 11.82583815 9 15 C3.72 15 -1.56 15 -7 15 C-7 10.71 -7 6.42 -7 2 C-4.69 2 -2.38 2 0 2 C0 1.34 0 0.68 0 0 Z " fill="#0C0C0C" transform="translate(37,138)"/>
<path d="M0 0 C2.97 0 5.94 0 9 0 C9 1.32 9 2.64 9 4 C10.98 4 12.96 4 15 4 C15 8.29 15 12.58 15 17 C12.36 17 9.72 17 7 17 C6.77213542 14.94921875 6.54427083 12.8984375 6.31640625 10.84765625 C6.18113386 8.98859771 6.18113386 8.98859771 5 8 C3.15108054 7.76636119 1.29511969 7.58696365 -0.5625 7.4375 C-1.57441406 7.35371094 -2.58632812 7.26992187 -3.62890625 7.18359375 C-4.80259766 7.09271484 -4.80259766 7.09271484 -6 7 C-6 6.01 -6 5.02 -6 4 C-4.02 4 -2.04 4 0 4 C0 2.68 0 1.36 0 0 Z " fill="#0E0E0E" transform="translate(11,136)"/>
<path d="M0 0 C1.32 0 2.64 0 4 0 C5.79967503 2.25555298 7.26825002 4.36302732 8.75 6.8125 C9.16121094 7.45509766 9.57242188 8.09769531 9.99609375 8.75976562 C13 13.5749974 13 13.5749974 13 17 C11.0625 16.6875 11.0625 16.6875 9 16 C8.67 15.01 8.34 14.02 8 13 C4.04 13 0.08 13 -4 13 C-4.66 14.32 -5.32 15.64 -6 17 C-6.99 17 -7.98 17 -9 17 C-8.32890703 12.95340956 -6.27877054 9.70382249 -4.1875 6.25 C-3.84396484 5.64800781 -3.50042969 5.04601562 -3.14648438 4.42578125 C-2.10546875 2.703125 -2.10546875 2.703125 0 0 Z " fill="#EBEBEB" transform="translate(109,136)"/>
<path d="M0 0 C3.63 0 7.26 0 11 0 C11 0.66 11 1.32 11 2 C11.763125 2.45375 12.52625 2.9075 13.3125 3.375 C16.00869044 5.00525469 17.29482136 6.39735892 19 9 C18.12432227 10.03817463 17.22347209 11.05515303 16.3125 12.0625 C15.81363281 12.63097656 15.31476563 13.19945312 14.80078125 13.78515625 C13 15 13 15 10.5625 15.0546875 C6.92143109 13.55607682 5.76929088 11.35964903 3.6875 8.0625 C2.99011719 6.98097656 2.29273437 5.89945313 1.57421875 4.78515625 C0 2 0 2 0 0 Z " fill="#0F0F0F" transform="translate(113,136)"/>
<path d="M0 0 C2.25 -0.25 2.25 -0.25 5 0 C7.3125 2 7.3125 2 9 4 C11.49361571 2.79618552 13.68143083 1.54571278 16 0 C18.6875 -0.125 18.6875 -0.125 21 0 C20.21625 0.763125 19.4325 1.52625 18.625 2.3125 C15.92742283 4.90891805 15.92742283 4.90891805 14 8 C14.5053125 8.40992188 15.010625 8.81984375 15.53125 9.2421875 C16.1809375 9.78101563 16.830625 10.31984375 17.5 10.875 C18.1496875 11.40867188 18.799375 11.94234375 19.46875 12.4921875 C19.9740625 12.98976562 20.479375 13.48734375 21 14 C21 14.66 21 15.32 21 16 C18.8125 16.3125 18.8125 16.3125 16 16 C13.1875 13.5 13.1875 13.5 11 11 C8.76787927 12.00060584 7.19744831 12.77679757 5.5625 14.625 C4 16 4 16 1.3125 16.1875 C0.1678125 16.0946875 0.1678125 16.0946875 -1 16 C-0.566875 15.52949219 -0.13375 15.05898437 0.3125 14.57421875 C0.869375 13.95160156 1.42625 13.32898438 2 12.6875 C2.8353125 11.76517578 2.8353125 11.76517578 3.6875 10.82421875 C5.29201498 8.96868665 5.29201498 8.96868665 5 6 C3.9227279 4.34496905 3.9227279 4.34496905 2.5 2.8125 C1.675 1.884375 0.85 0.95625 0 0 Z " fill="#EBEBEB" transform="translate(125,137)"/>
<path d="M0 0 C2.97 0 5.94 0 9 0 C9 0.99 9 1.98 9 3 C7.02 3 5.04 3 3 3 C3 3.99 3 4.98 3 6 C4.15628906 5.96519531 4.15628906 5.96519531 5.3359375 5.9296875 C6.33882812 5.91164062 7.34171875 5.89359375 8.375 5.875 C9.37273438 5.85179687 10.37046875 5.82859375 11.3984375 5.8046875 C14 6 14 6 16 8 C16.25 11 16.25 11 16 14 C14 16 14 16 10.5234375 16.1953125 C9.14049032 16.18201493 7.75761346 16.15816232 6.375 16.125 C5.31539063 16.11146484 5.31539063 16.11146484 4.234375 16.09765625 C2.48943902 16.07407603 0.74467705 16.03820461 -1 16 C-1 15.01 -1 14.02 -1 13 C5.435 12.505 5.435 12.505 12 12 C12 11.34 12 10.68 12 10 C8.04 9.67 4.08 9.34 0 9 C-1.125 2.25 -1.125 2.25 0 0 Z " fill="#E5E5E5" transform="translate(2,137)"/>
<path d="M0 0 C4.62 0 9.24 0 14 0 C12.26611337 4.33471656 10.47613198 7.49470951 7.875 11.3125 C7.15054688 12.38113281 6.42609375 13.44976562 5.6796875 14.55078125 C4.84824219 15.76314453 4.84824219 15.76314453 4 17 C1.36 15.68 -1.28 14.36 -4 13 C-4 12.34 -4 11.68 -4 11 C-2.35 10.67 -0.7 10.34 1 10 C1.020625 8.72125 1.04125 7.4425 1.0625 6.125 C1.07410156 5.40570313 1.08570312 4.68640625 1.09765625 3.9453125 C1.12649242 1.91814596 1.12649242 1.91814596 0 0 Z " fill="#151515" transform="translate(95,136)"/>
<path d="M0 0 C4.29 0 8.58 0 13 0 C13 4.62 13 9.24 13 14 C12.67 12.68 12.34 11.36 12 10 C8.04 10 4.08 10 0 10 C0 6.7 0 3.4 0 0 Z " fill="#090909" transform="translate(65,139)"/>
<path d="M0 0 C0.06058594 0.75925781 0.12117188 1.51851562 0.18359375 2.30078125 C0.26738281 3.29464844 0.35117187 4.28851563 0.4375 5.3125 C0.51871094 6.29863281 0.59992187 7.28476563 0.68359375 8.30078125 C0.91812559 11.09375599 0.91812559 11.09375599 2 14 C-1.96 14 -5.92 14 -10 14 C-10.41838867 10.58315917 -10.59452863 8.00642428 -8.8046875 4.9765625 C-4.7625 0 -4.7625 0 0 0 Z " fill="#0A0A0A" transform="translate(61,139)"/>
<path d="M0 0 C1.32 0 2.64 0 4 0 C4 3.96 4 7.92 4 12 C7.96 12 11.92 12 16 12 C16 13.32 16 14.64 16 16 C13.89646505 16.0810206 11.79204048 16.13919907 9.6875 16.1875 C8.51574219 16.22230469 7.34398438 16.25710937 6.13671875 16.29296875 C3 16 3 16 1.09375 14.90625 C-0.55536617 12.0320761 -0.28485023 9.58995764 -0.1875 6.3125 C-0.16042969 5.13300781 -0.13335937 3.95351562 -0.10546875 2.73828125 C-0.07066406 1.83464844 -0.03585938 0.93101562 0 0 Z " fill="#D7D7D7" transform="translate(61,137)"/>
<path d="M0 0 C5.28 0 10.56 0 16 0 C16 0.99 16 1.98 16 3 C14.02 3 12.04 3 10 3 C10 7.29 10 11.58 10 16 C8.68 16 7.36 16 6 16 C6 11.71 6 7.42 6 3 C4.02 3 2.04 3 0 3 C0 2.01 0 1.02 0 0 Z " fill="#E8E8E8" transform="translate(20,137)"/>
<path d="M0 0 C3.60296594 -0.41176754 4.78402067 -0.1535853 7.8125 2 C8.534375 2.66 9.25625 3.32 10 4 C13.18234105 2.24545615 13.18234105 2.24545615 16 0 C17.66617115 -0.04063832 19.33388095 -0.042721 21 0 C17.3960396 4.76237624 17.3960396 4.76237624 14.8125 6.3125 C11.87814768 9.04448319 12.2562458 12.09225159 12 16 C11.01 16 10.02 16 9 16 C9 14.824375 9 13.64875 9 12.4375 C8.53993077 8.33339036 7.04830748 6.70696068 3.9375 4.0625 C3.20402344 3.49660156 2.47054687 2.93070313 1.71484375 2.34765625 C0.86599609 1.68056641 0.86599609 1.68056641 0 1 C0 0.67 0 0.34 0 0 Z " fill="#EDEDED" transform="translate(38,137)"/>
<path d="M0 0 C7.92 0 15.84 0 24 0 C24 5.94 24 11.88 24 18 C23.67 18 23.34 18 23 18 C23 13.05 23 8.1 23 3 C17.27074706 1.33844484 17.27074706 1.33844484 14.125 3.9375 C13.42375 4.618125 12.7225 5.29875 12 6 C9.53199953 4.84826645 7.95216435 3.95216435 6 2 C2.40320934 2.32326553 2.40320934 2.32326553 -1 3 C-0.67 2.01 -0.34 1.02 0 0 Z " fill="#424242" transform="translate(124,136)"/>
<path d="M0 0 C0 4.29 0 8.58 0 13 C-4.34905688 10.39056587 -6.14579818 8.91131361 -9 5 C-4.5 0 -4.5 0 0 0 Z " fill="#131313" transform="translate(147,139)"/>
<path d="M0 0 C11.55 0 23.1 0 35 0 C31 5 31 5 28 6 C27.21625 5.360625 26.4325 4.72125 25.625 4.0625 C23.19543453 1.79747738 23.19543453 1.79747738 20.3125 1.625 C17.81076481 1.79936747 17.81076481 1.79936747 16 4 C16 3.01 16 2.02 16 1 C10.72 1 5.44 1 0 1 C0 0.67 0 0.34 0 0 Z " fill="#2A2A2A" transform="translate(20,136)"/>
<path d="M0 0 C9.9 0 19.8 0 30 0 C30 0.33 30 0.66 30 1 C28.02 1 26.04 1 24 1 C24 1.66 24 2.32 24 3 C19.38 3 14.76 3 10 3 C10 2.34 10 1.68 10 1 C8.68 1 7.36 1 6 1 C6 1.66 6 2.32 6 3 C3 2 3 2 0 0 Z " fill="#3C3C3C" transform="translate(55,136)"/>
<path d="M0 0 C3.63 0 7.26 0 11 0 C10.67 1.65 10.34 3.3 10 5 C6.7 5 3.4 5 0 5 C0 3.35 0 1.7 0 0 Z " fill="#727272" transform="translate(83,140)"/>
<path d="M0 0 C3.96 0 7.92 0 12 0 C12 1.32 12 2.64 12 4 C7.71 4 3.42 4 -1 4 C-0.67 2.68 -0.34 1.36 0 0 Z " fill="#141414" transform="translate(105,149)"/>
<path d="M0 0 C1.32 0 2.64 0 4 0 C4 3.96 4 7.92 4 12 C2.68 12.33 1.36 12.66 0 13 C0 8.71 0 4.42 0 0 Z " fill="#E8E8E8" transform="translate(61,137)"/>
<path d="M0 0 C4.62 0 9.24 0 14 0 C13.67 0.99 13.34 1.98 13 3 C9.7 3 6.4 3 3 3 C3 4.98 3 6.96 3 9 C2.67 9 2.34 9 2 9 C1.855625 7.88625 1.71125 6.7725 1.5625 5.625 C1.21627965 2.17857953 1.21627965 2.17857953 0 0 Z " fill="#575757" transform="translate(95,136)"/>
<path d="M0 0 C4.29 0.33 8.58 0.66 13 1 C13.33 1.99 13.66 2.98 14 4 C9.38 4 4.76 4 0 4 C0 2.68 0 1.36 0 0 Z " fill="#141414" transform="translate(1,145)"/>
<path d="M0 0 C3.78496138 1.51398455 4.0072198 2.0144396 6 6 C2.7 6 -0.6 6 -4 6 C-2 2 -2 2 0 0 Z " fill="#131313" transform="translate(134,147)"/>
<path d="M0 0 C2.97 0 5.94 0 9 0 C9 0.99 9 1.98 9 3 C7.02 3 5.04 3 3 3 C2.67 3.99 2.34 4.98 2 6 C1.67 5.34 1.34 4.68 1 4 C0.34 4.99 -0.32 5.98 -1 7 C-0.67 4.69 -0.34 2.38 0 0 Z " fill="#DDDDDD" transform="translate(2,137)"/>
<path d="M0 0 C-1.65 1.65 -3.3 3.3 -5 5 C-8.875 3.25 -8.875 3.25 -10 1 C-6.59437148 0.22157062 -3.49234244 -0.09978121 0 0 Z " fill="#393939" transform="translate(141,137)"/>
<path d="M0 0 C4.75 1.875 4.75 1.875 7 3 C7 3.66 7 4.32 7 5 C4.69 5 2.38 5 0 5 C0 3.35 0 1.7 0 0 Z " fill="#131313" transform="translate(83,148)"/>
<path d="M0 0 C0.66 0 1.32 0 2 0 C2.66 1.65 3.32 3.3 4 5 C2.02 5 0.04 5 -2 5 C-1.34 3.35 -0.68 1.7 0 0 Z " fill="#1F1F1F" transform="translate(110,141)"/>
<path d="M0 0 C2.475 0.495 2.475 0.495 5 1 C5.33 1.99 5.66 2.98 6 4 C4.02 4 2.04 4 0 4 C0 2.68 0 1.36 0 0 Z " fill="#0E0E0E" transform="translate(83,140)"/>
<path d="M0 0 C0.66 0.99 1.32 1.98 2 3 C3.96361864 3.57748803 3.96361864 3.57748803 6.125 3.6875 C7.40375 3.790625 8.6825 3.89375 10 4 C10 4.33 10 4.66 10 5 C6.37 5 2.74 5 -1 5 C-0.67 3.35 -0.34 1.7 0 0 Z " fill="#FEFEFE" transform="translate(3,140)"/>
<path d="M0 0 C1.65 0 3.3 0 5 0 C5 0.66 5 1.32 5 2 C5.66 2.33 6.32 2.66 7 3 C5.02 3.33 3.04 3.66 1 4 C0.67 2.68 0.34 1.36 0 0 Z " fill="#2B2B2B" transform="translate(113,136)"/>
</svg>
